<svg width="8" height="8" viewBox="0 0 8 8" fill="none" xmlns="http://www.w3.org/2000/svg"><rect width="1" height="1" fill="#A3CD9D"/><rect y="1" width="1" height="1" fill="#2E9546"/><rect y="2" width="1" height="1" fill="#46C536"/><rect y="3" width="1" height="1" fill="#09BA08"/><rect y="4" width="1" height="1" fill="#4DE552"/><rect y="5" width="1" height="1" fill="#8AC295"/><rect y="6" width="1" height="1" fill="#C2E2BB"/><rect y="7" width="1" height="1" fill="#1BA337"/><rect x="1" width="1" height="1" fill="#46C536"/><rect x="1" y="1" width="1" height="1" fill="#618967"/><rect x="1" y="2" width="1" height="1" fill="#010101"/><rect x="1" y="3" width="1" height="1" fill="#010101"/><rect x="1" y="4" width="1" height="1" fill="#46C536"/><rect x="1" y="5" width="1" height="1" fill="#2E9546"/><rect x="1" y="6" width="1" height="1" fill="#589F5D"/><rect x="1" y="7" width="1" height="1" fill="#A3CD9D"/><rect x="2" width="1" height="1" fill="#46C536"/><rect x="2" y="1" width="1" height="1" fill="#069307"/><rect x="2" y="2" width="1" height="1" fill="#010101"/><rect x="2" y="3" width="1" height="1" fill="#010101"/><rect x="2" y="4" width="1" height="1" fill="#60E160"/><rect x="2" y="5" width="1" height="1" fill="#010101"/><rect x="2" y="6" width="1" height="1" fill="#010101"/><rect x="2" y="7" width="1" height="1" fill="#010101"/><rect x="3" width="1" height="1" fill="#8AC295"/><rect x="3" y="1" width="1" height="1" fill="#46C536"/><rect x="3" y="2" width="1" height="1" fill="#A3CD9D"/><rect x="3" y="3" width="1" height="1" fill="#1BA337"/><rect x="3" y="4" width="1" height="1" fill="#010101"/><rect x="3" y="5" width="1" height="1" fill="#010101"/><rect x="3" y="6" width="1" height="1" fill="#010101"/><rect x="3" y="7" width="1" height="1" fill="#7EE089"/><rect x="4" width="1" height="1" fill="#60E160"/><rect x="4" y="1" width="1" height="1" fill="#457F45"/><rect x="4" y="2" width="1" height="1" fill="#1BD745"/><rect x="4" y="3" width="1" height="1" fill="#0E7210"/><rect x="4" y="4" width="1" height="1" fill="#010101"/><rect x="4" y="5" width="1" height="1" fill="#010101"/><rect x="4" y="6" width="1" height="1" fill="#010101"/><rect x="4" y="7" width="1" height="1" fill="#C2E2BB"/><rect x="5" width="1" height="1" fill="#6FDC5D"/><rect x="5" y="1" width="1" height="1" fill="#6FDC5D"/><rect x="5" y="2" width="1" height="1" fill="#010101"/><rect x="5" y="3" width="1" height="1" fill="#010101"/><rect x="5" y="4" width="1" height="1" fill="#C6D3C2"/><rect x="5" y="5" width="1" height="1" fill="#010101"/><rect x="5" y="6" width="1" height="1" fill="#010101"/><rect x="5" y="7" width="1" height="1" fill="black"/><rect x="6" width="1" height="1" fill="#A3CD9D"/><rect x="6" y="1" width="1" height="1" fill="#0E7210"/><rect x="6" y="2" width="1" height="1" fill="#010101"/><rect x="6" y="3" width="1" height="1" fill="#010101"/><rect x="6" y="4" width="1" height="1" fill="#60E160"/><rect x="6" y="5" width="1" height="1" fill="#618967"/><rect x="6" y="6" width="1" height="1" fill="#9DEF9D"/><rect x="6" y="7" width="1" height="1" fill="#46C536"/><rect x="7" width="1" height="1" fill="#2E9546"/><rect x="7" y="1" width="1" height="1" fill="#D2D2D2"/><rect x="7" y="2" width="1" height="1" fill="#DCDCDC"/><rect x="7" y="3" width="1" height="1" fill="#4DE552"/><rect x="7" y="4" width="1" height="1" fill="#46C536"/><rect x="7" y="5" width="1" height="1" fill="#B2CDAE"/><rect x="7" y="6" width="1" height="1" fill="#2E9546"/><rect x="7" y="7" width="1" height="1" fill="#65CD54"/></svg>
